<svg xmlns="http://www.w3.org/2000/svg" viewBox="0 0 1550 50" width="1550" height="50"><path d="M25 0c-4.129 0-8.023 1-11.455 2.772-2.84 1.467-5.363 3.461-7.439 5.855C2.302 13.013 0 18.737 0 25c0 4.226 1.048 8.208 2.899 11.698 2.278 4.296 5.773 7.848 10.025 10.198C16.504 48.874 20.62 50 25 50c3.836 0 7.47-.864 10.718-2.407 2.787-1.324 5.291-3.149 7.394-5.359 2.147-2.256 3.878-4.913 5.067-7.848C49.353 31.488 50 28.32 50 25c0-3.543-.737-6.913-2.065-9.967-1.282-2.945-3.114-5.595-5.367-7.821-2.207-2.18-4.817-3.952-7.709-5.194C31.834.719 28.501 0 25 0zm8.801 26.105c-4.059 2.763-8.117 5.527-12.176 8.29-.41.277-.937.308-1.379.074-.437-.231-.711-.684-.711-1.18V16.711c0-.496.274-.949.711-1.18.442-.234.969-.203 1.379.074 4.059 2.763 8.117 5.527 12.176 8.29.367.25.586.664.586 1.105 0 .441-.219.855-.586 1.105zm0 0M76.55.988c-3.858-.151-7.497.632-10.704 2.136-2.746 1.371-5.195 3.235-7.227 5.471-3.65 3.79-6.09 8.914-6.43 14.766-.418 3.949.221 8.01 1.95 11.689 2.129 4.288 5.54 7.848 9.731 10.177 3.273 1.862 7.045 2.921 11.062 2.921 3.209 0 6.264-.984 9.103-2.723 2.581-1.273 4.897-3.015 6.838-5.115 1.977-2.079 3.563-4.532 4.644-7.244.834-2.448 1.294-5.07 1.294-7.815 0-2.546-.024-5.072-.448-7.926-.38-2.752-1.427-5.851-3.532-8.696-2.063-2.297-4.58-4.204-7.426-5.583-2.793-1.267-5.88-1.997-9.132-2.058zm7.336 24.116c-3.835 2.582-7.666 5.147-11.485 7.7-.407.232-.915.226-1.328-.031-.408-.256-.647-.717-.62-1.207.027-5.189.063-10.369.102-15.533 0-.463.256-.886.665-1.102.448-.219.973-.177 1.382.103 3.825 2.609 7.638 5.231 11.43 7.859.343.278.528.706.496 1.145-.026.433-.263.833-.642 1.066zm0 0M128.048 1.942c-3.597-.297-6.99.277-9.979 1.523-2.655 1.277-5.033 3.015-7.022 5.1-3.502 3.213-6.075 7.757-6.743 13.213-.822 3.681-.578 7.819 1.034 11.68 1.985 4.28 5.314 7.847 9.446 10.156 2.976 1.751 6.416 2.745 10.083 2.745 2.603 0 5.098-1.1 7.543-3.029 2.382-1.224 4.516-2.884 6.301-4.88 1.811-1.906 3.258-4.162 4.234-6.659.506-2.015.785-4.108.785-6.298 0-1.581.666-3.293 1.115-5.953.491-2.566.202-6.099-1.761-9.542-1.922-2.411-4.349-4.449-7.151-5.959-2.569-1.236-5.419-1.976-8.431-2.097zm5.92 22.196c-3.619 2.407-7.23 4.778-10.818 7.128-.404.19-.892.149-1.277-.131-.381-.281-.586-.749-.533-1.233.052-4.864.123-9.709.201-14.523 0-.432.239-.827.619-1.028.455-.204.979-.152 1.386.131 3.599 2.46 7.175 4.946 10.71 7.442.32.307.471.747.407 1.184-.05.426-.305.812-.695 1.03zm0 0M179.493 2.863c-3.345-.438-6.499-.067-9.279.93-2.567 1.188-4.877 2.804-6.824 4.742-3.359 2.658-6.06 6.642-7.046 11.715-1.212 3.423-1.349 7.634.15 11.673 1.846 4.272 5.097 7.845 9.171 10.135 2.691 1.643 5.81 2.575 9.138 2.575 2.019 0 3.975-1.213 6.039-3.324 2.189-1.177 4.148-2.759 5.783-4.653 1.651-1.74 2.963-3.805 3.838-6.095.19-1.596.294-3.179.294-4.834 0-.652 1.331-1.577 2.624-4.05 1.33-2.386 1.772-6.338-.052-10.358-1.788-2.521-4.127-4.684-6.887-6.321-2.353-1.207-4.974-1.957-7.753-2.135zm4.554 20.342c-3.41 2.238-6.809 4.424-10.174 6.578-.401.149-.871.073-1.229-.228-.354-.306-.527-.78-.448-1.259.076-4.551.181-9.073.296-13.549 0-.402.222-.769.576-.956.461-.189.983-.127 1.388.158 3.381 2.316 6.728 4.672 10.016 7.041.297.333.415.786.323 1.221-.074.419-.347.791-.748.994zm0 0M230.885 3.751c-3.101-.575-6.027-.398-8.604.358-2.482 1.102-4.726 2.6-6.634 4.398-3.221 2.122-6.045 5.567-7.336 10.271-1.588 3.174-2.093 7.457-.703 11.665 1.712 4.264 4.888 7.844 8.907 10.115 2.415 1.539 5.224 2.412 8.227 2.412 1.456 0 2.892-1.321 4.589-3.608 2.003-1.132 3.793-2.639 5.283-4.435 1.497-1.58 2.681-3.462 3.458-5.551-.115-1.193-.179-2.285-.179-3.423 0 .244 1.97.076 4.076-2.217 2.14-2.212 3.287-6.567 1.595-11.144-1.657-2.627-3.913-4.911-6.632-6.671-2.144-1.178-4.544-1.938-7.1-2.17zm3.239 18.555c-3.21 2.075-6.404 4.082-9.554 6.047-.399.109-.851 0-1.183-.321-.328-.329-.47-.81-.366-1.284.1-4.248.237-8.459.387-12.61 0-.372.206-.712.534-.886.468-.176.988-.104 1.392.184 3.171 2.178 6.297 4.407 9.346 6.653.275.36.363.824.241 1.257-.097.412-.386.772-.797.96zm0 0M282.225 4.605c-2.867-.706-5.572-.716-7.955-.191-2.401 1.018-4.581 2.403-6.451 4.066-3.088 1.606-6.031 4.532-7.616 8.881-1.949 2.935-2.808 7.286-1.523 11.658 1.583 4.257 4.686 7.842 8.653 10.096 2.15 1.439 4.661 2.254 7.351 2.254.914 0 1.849-1.425 3.192-3.881 1.825-1.088 3.453-2.523 4.803-4.225 1.349-1.426 2.408-3.131 3.092-5.028-.409-.805-.635-1.424-.635-2.065 0 1.106 2.587 1.668 5.475-.453 2.919-2.045 4.745-6.788 3.18-11.9-1.532-2.729-3.707-5.13-6.386-7.007-1.944-1.151-4.132-1.92-6.473-2.205zm1.972 16.836c-3.016 1.919-6.013 3.753-8.956 5.537-.397.071-.832-.071-1.139-.412-.303-.351-.414-.839-.288-1.307.123-3.957.291-7.869.476-11.706 0-.345.191-.659.494-.82.473-.162.991-.081 1.394.209 2.969 2.044 5.883 4.152 8.702 6.281.255.384.312.86.162 1.291-.118.406-.423.753-.845.927zm0 0M333.512 5.425c-2.642-.831-5.135-1.022-7.331-.719-2.322.939-4.441 2.216-6.274 3.747-2.961 1.111-6.019 3.539-7.886 7.547-2.297 2.705-3.495 7.122-2.31 11.65 1.458 4.25 4.492 7.842 8.407 10.078 1.896 1.344 4.121 2.103 6.509 2.103.394 0 .848-1.525 1.852-4.144 1.654-1.045 3.126-2.411 4.341-4.022 1.207-1.279 2.146-2.814 2.74-4.526-.691-.432-1.072-.596-1.072-.761 0 1.935 3.179 3.197 6.818 1.243 3.667-1.885 6.145-7.001 4.703-12.627-1.412-2.827-3.509-5.34-6.151-7.331-1.751-1.123-3.735-1.902-5.869-2.238zm.756 15.185c-2.831 1.768-5.639 3.437-8.383 5.046-.394.034-.813-.138-1.095-.498-.28-.373-.363-.866-.213-1.33.145-3.678.343-7.301.561-10.838 0-.317.175-.607.455-.755.478-.15.995-.06 1.397.233 2.774 1.916 5.485 3.906 8.082 5.923.235.407.263.894.087 1.324-.139.399-.46.735-.891.895zm0 0M384.747 6.212c-2.427-.951-4.716-1.315-6.733-1.225-2.247.862-4.308 2.034-6.105 3.441-2.839.636-6.006 2.585-8.144 6.266-2.63 2.485-4.154 6.965-3.066 11.644 1.339 4.243 4.306 7.84 8.173 10.06 1.651 1.252 3.602 1.958 5.701 1.958-.106 0-.113-1.621.566-4.396 1.489-1.005 2.811-2.304 3.898-3.828 1.07-1.137 1.895-2.509 2.402-4.045-.962-.074-1.492.198-1.492.491 0 2.729 3.748 4.664 8.107 2.869 4.385-1.731 7.488-7.205 6.164-13.324-1.297-2.92-3.319-5.542-5.925-7.641-1.566-1.098-3.355-1.885-5.29-2.27zm-.411 13.6c-2.653 1.625-5.279 3.135-7.833 4.577-.392-.002-.795-.203-1.054-.582-.257-.393-.312-.893-.141-1.351.166-3.41.393-6.758.642-10.006 0-.291.161-.558.418-.693.484-.138.999-.04 1.4.256 2.588 1.793 5.103 3.671 7.489 5.579.215.431.216.928.014 1.356-.16.393-.495.717-.935.864zm0 0M435.929 6.966c-2.22-1.067-4.315-1.596-6.16-1.71-2.175.788-4.18 1.861-5.944 3.148-2.721.181-5.993 1.672-8.391 5.04-2.948 2.273-4.785 6.814-3.789 11.637 1.225 4.237 4.128 7.84 7.948 10.044 1.418 1.163 3.106 1.819 4.929 1.819-.585 0-1.034-1.714-.666-4.638 1.332-.966 2.51-2.201 3.474-3.642.94-1.001 1.655-2.218 2.079-3.583-1.221.268-1.894.957-1.894 1.688 0 3.49 4.291 6.069 9.34 4.427 5.073-1.584 8.775-7.401 7.563-13.992-1.187-3.011-3.138-5.735-5.708-7.938-1.39-1.074-2.991-1.869-4.736-2.3zm-1.528 12.083c-2.483 1.486-4.935 2.844-7.306 4.126-.39-.035-.778-.265-1.015-.661-.235-.413-.263-.918-.071-1.372.186-3.153.44-6.237.72-9.209 0-.266.147-.51.382-.634.489-.126 1.002-.02 1.402.278 2.41 1.675 4.737 3.446 6.92 5.251.197.452.172.96-.054 1.386-.18.388-.529.701-.978.835zm0 0M487.059 7.686c-2.023-1.178-3.932-1.865-5.613-2.174-2.106.719-4.057 1.696-5.789 2.869-2.609-.253-5.982.8-8.628 3.869-3.253 2.071-5.387 6.669-4.48 11.631 1.116 4.23 3.958 7.838 7.733 10.027 1.194 1.079 2.632 1.687 4.19 1.687-1.041 0-1.912-1.802-1.842-4.869 1.181-.929 2.223-2.103 3.069-3.465.814-.871 1.424-1.939 1.769-3.142-1.468.596-2.277 1.683-2.277 2.833 0 4.217 4.811 7.41 10.519 5.914 5.729-1.443 10.003-7.587 8.899-14.63-1.081-3.096-2.964-5.918-5.501-8.221-1.221-1.05-2.643-1.853-4.207-2.329zm-2.597 10.634c-2.319 1.354-4.605 2.567-6.802 3.695-.388-.067-.761-.324-.977-.737-.214-.432-.217-.942-.005-1.392.205-2.907.485-5.739.794-8.446 0-.243.134-.465.349-.579.493-.114 1.006 0 1.404.3 2.24 1.563 4.388 3.231 6.377 4.936.18.474.128.991-.121 1.416-.198.382-.56.684-1.019.807zm0 0M538.136 8.372c-1.835-1.282-3.566-2.12-5.091-2.615-2.041.652-3.941 1.538-5.642 2.602-2.502-.668-5.971-.031-8.852 2.752-3.544 1.879-5.963 6.532-5.14 11.625 1.012 4.225 3.796 7.837 7.529 10.012.981.999 2.178 1.56 3.485 1.56-1.477 0-2.75-1.886-2.964-5.089 1.037-.893 1.949-2.009 2.682-3.295.696-.748 1.206-1.673 1.475-2.722-1.704.908-2.643 2.375-2.643 3.925 0 4.909 5.306 8.689 11.643 7.332 6.356-1.309 11.175-7.765 10.173-15.238-.98-3.178-2.798-6.094-5.303-8.491-1.06-1.029-2.311-1.839-3.702-2.358zm-3.614 9.252c-2.164 1.229-4.292 2.303-6.323 3.285-.386-.098-.745-.38-.941-.809-.195-.45-.173-.965.058-1.411.223-2.674.529-5.264.865-7.72 0-.221.122-.422.316-.525.498-.104 1.009.018 1.407.32 2.077 1.455 4.055 3.026 5.859 4.637.163.493.087 1.019-.184 1.443-.216.377-.591.669-1.057.78zm0 0M589.161 9.025c-1.656-1.382-3.219-2.363-4.595-3.035-1.979.588-3.83 1.388-5.502 2.348-2.4-1.062-5.96-.822-9.067 1.69-3.82 1.695-6.509 6.401-5.766 11.619.914 4.219 3.642 7.837 7.334 9.998.778.922 1.748 1.439 2.815 1.439-1.891 0-3.547-1.965-4.031-5.298.901-.86 1.688-1.92 2.315-3.135.582-.629.997-1.42 1.195-2.322-1.929 1.205-2.992 3.034-2.992 4.964 0 5.569 5.778 9.906 12.713 8.681 6.951-1.181 12.289-7.933 11.385-15.816-.885-3.256-2.641-6.262-5.116-8.749-.907-1.007-1.996-1.824-3.222-2.384zm-4.583 7.938c-2.016 1.108-3.994 2.051-5.866 2.894-.384-.127-.73-.433-.907-.878-.176-.467-.131-.987.118-1.429.241-2.451.57-4.813.933-7.029 0-.199.109-.381.285-.473.502-.094 1.012.034 1.409.338 1.922 1.354 3.738 2.831 5.366 4.352.147.513.049 1.047-.244 1.47-.233.371-.62.655-1.094.755zm0 0M640.133 9.645c-1.487-1.478-2.889-2.595-4.124-3.434-1.919.528-3.724 1.246-5.369 2.107-2.304-1.436-5.95-1.573-9.27.682-4.082 1.522-7.028 6.277-6.362 11.613.821 4.215 3.496 7.837 7.15 9.985.586.85 1.34 1.325 2.18 1.325-2.285 0-4.304-2.041-5.044-5.497.771-.827 1.441-1.835 1.966-2.982.475-.518.799-1.18.929-1.942-2.142 1.486-3.322 3.658-3.322 5.948 0 6.195 6.225 11.061 13.727 9.962 7.516-1.06 13.346-8.094 12.535-16.366-.794-3.329-2.491-6.419-4.938-8.992-.761-.987-1.696-1.811-2.766-2.409zm-5.502 6.69c-1.876.995-3.71 1.813-5.433 2.524-.382-.155-.715-.484-.875-.943-.157-.483-.09-1.008.176-1.446.257-2.24.609-4.385.996-6.374 0-.179.099-.342.256-.425.507-.084 1.016.051 1.411.357 1.776 1.257 3.438 2.646 4.899 4.081.132.531.012 1.074-.301 1.495-.248.367-.647.641-1.129.731zm0 0M691.052 10.231c-1.325-1.567-2.576-2.813-3.678-3.811-1.863.471-3.625 1.111-5.243 1.88-2.213-1.79-5.941-2.283-9.462-.272-4.331 1.357-7.519 6.159-6.925 11.608.732 4.209 3.358 7.835 6.975 9.971.404.782.954 1.217 1.578 1.217-2.656 0-5.019-2.112-6.001-5.684.649-.797 1.207-1.756 1.637-2.837.373-.413.612-.954.677-1.584-2.343 1.753-3.635 4.249-3.635 6.88 0 6.786 6.649 12.153 14.687 11.173 8.051-.946 14.346-8.247 13.623-16.885-.709-3.399-2.35-6.57-4.77-9.223-.623-.969-1.412-1.799-2.335-2.433zm-6.37 5.511c-1.744.887-3.443 1.586-5.023 2.173-.381-.181-.703-.532-.845-1.005-.14-.498-.053-1.028.229-1.462.273-2.041.646-3.98 1.058-5.754 0-.159.088-.305.228-.379.511-.075 1.018.067 1.413.374 1.637 1.165 3.153 2.471 4.456 3.826.118.548-.023 1.098-.355 1.518-.263.363-.673.628-1.161.709zm0 0M741.919 10.783c-1.174-1.651-2.282-3.018-3.258-4.166-1.811.417-3.531.984-5.124 1.665-2.128-2.123-5.932-2.952-9.644-1.171-4.564 1.202-7.981 6.049-7.455 11.604.648 4.204 3.227 7.834 6.81 9.959.233.716.59 1.114 1.011 1.114-3.007 0-5.693-2.179-6.904-5.861.533-.769.986-1.68 1.326-2.701.277-.313.435-.74.44-1.246-2.533 2.005-3.929 4.807-3.929 7.759 0 7.344 7.047 13.183 15.591 12.315 8.555-.838 15.29-8.39 14.649-17.374-.628-3.466-2.217-6.712-4.611-9.441-.494-.951-1.146-1.787-1.929-2.456zm-7.19 4.399c-1.618.786-3.19 1.374-4.636 1.843-.38-.206-.69-.578-.816-1.063-.124-.513-.017-1.047.28-1.478.288-1.852.681-3.597 1.114-5.169 0-.141.078-.27.202-.336.515-.066 1.021.081 1.415.391 1.507 1.079 2.885 2.306 4.04 3.584.104.564-.056 1.122-.406 1.541-.278.358-.698.616-1.193.687zm0 0M792.734 11.303c-1.032-1.732-2.006-3.213-2.864-4.501-1.761.366-3.443.865-5.013 1.463-2.047-2.436-5.924-3.581-9.814-2.015-4.784 1.057-8.416 5.945-7.953 11.599.569 4.2 3.104 7.834 6.655 9.948.071.655.248 1.019.479 1.019-3.337 0-6.327-2.244-7.753-6.028.425-.742.779-1.61 1.034-2.573.187-.219.27-.539.217-.928-2.711 2.24-4.206 5.33-4.206 8.584 0 7.868 7.422 14.151 16.441 13.387 9.029-.736 16.176-8.524 15.613-17.834-.552-3.527-2.092-6.844-4.462-9.645-.372-.934-.895-1.776-1.548-2.476zm-7.96 3.353c-1.501.691-2.953 1.174-4.274 1.533-.378-.229-.678-.621-.788-1.118-.11-.526.016-1.064.327-1.492.302-1.676.714-3.238 1.168-4.62 0-.124.069-.237.178-.295.518-.059 1.023.095 1.416.406 1.384.997 2.634 2.15 3.648 3.358.092.578-.086 1.144-.453 1.561-.291.354-.721.605-1.222.667zm0 0M843.496 11.788c-.9-1.806-1.748-3.393-2.495-4.813-1.715.319-3.36.754-4.909 1.275-1.971-2.73-5.915-4.169-9.973-2.806-4.99.921-8.823 5.848-8.42 11.595.497 4.196 2.99 7.833 6.511 9.937-.079.599-.072.929-.02.929-3.644 0-6.919-2.302-8.546-6.182.324-.718.586-1.544.761-2.454.102-.132.114-.351.009-.631-2.879 2.461-4.465 5.82-4.465 9.356 0 8.359 7.772 15.056 17.236 14.391 9.471-.641 17.004-8.65 16.514-18.264-.481-3.585-1.975-6.969-4.323-9.837-.258-.918-.66-1.765-1.19-2.496zm-8.68 2.376c-1.391.602-2.732.987-3.935 1.243-.376-.251-.666-.661-.763-1.169-.095-.54.048-1.081.372-1.506.315-1.51.745-2.903 1.219-4.106 0-.108.059-.207.155-.257.521-.051 1.025.107 1.418.42 1.268.922 2.397 2.006 3.281 3.146.08.593-.116 1.165-.498 1.581-.304.351-.742.594-1.249.648zm0 0M894.205 12.24c-.775-1.875-1.507-3.562-2.151-5.104-1.672.275-3.283.65-4.811 1.099-1.901-3.002-5.909-4.717-10.122-3.541-5.181.794-9.201 5.758-8.854 11.591.428 4.192 2.883 7.833 6.376 9.927-.22.546-.37.846-.484.846-3.931 0-7.471-2.358-9.285-6.328.229-.694.405-1.482.506-2.342.025-.05-.029-.176-.185-.354-3.034 2.667-4.706 6.276-4.706 10.075 0 8.815 8.099 15.898 17.977 15.325 9.884-.553 17.776-8.767 17.353-18.665-.415-3.639-1.866-7.084-4.193-10.014-.152-.904-.441-1.756-.858-2.515zm-9.351 1.466c-1.288.519-2.524.813-3.618.973-.375-.272-.656-.698-.739-1.217-.082-.551.076-1.096.414-1.518.326-1.356.773-2.59 1.265-3.628 0-.093.051-.178.133-.222.525-.044 1.028.12 1.42.433 1.161.852 2.178 1.871 2.94 2.949.069.606-.143 1.184-.54 1.6-.315.347-.762.583-1.275.63zm0 0M944.862 12.659c-.661-1.939-1.284-3.718-1.833-5.374-1.632.235-3.212.554-4.722.937-1.835-3.255-5.901-5.224-10.259-4.222-5.358.676-9.551 5.674-9.255 11.587.364 4.189 2.784 7.832 6.251 9.918-.35.497-.646.768-.913.768-4.197 0-7.983-2.408-9.97-6.461.142-.673.238-1.425.271-2.24-.048.026-.163-.013-.365-.097-3.178 2.857-4.929 6.698-4.929 10.741 0 9.237 8.401 16.678 18.662 16.189 10.266-.471 18.49-8.875 18.13-19.036-.353-3.688-1.765-7.191-4.072-10.179-.054-.89-.24-1.747-.55-2.531zm-9.972.623c-1.193.443-2.333.652-3.325.723-.374-.291-.647-.733-.717-1.262-.07-.562.103-1.109.452-1.529.338-1.214.799-2.301 1.308-3.185 0-.08.044-.152.114-.189.527-.037 1.03.13 1.421.445 1.062.786 1.975 1.746 2.624 2.766.059.619-.167 1.202-.578 1.617-.326.344-.781.574-1.299.614zm0 0M995.466 13.044c-.555-1.998-1.079-3.862-1.54-5.621-1.595.197-3.147.465-4.639.787-1.776-3.488-5.896-5.691-10.385-4.849-5.522.568-9.875 5.597-9.626 11.584.307 4.185 2.694 7.831 6.136 9.909-.469.452-.9.698-1.308.698-4.441 0-8.453-2.456-10.599-6.585.062-.653.085-1.373.054-2.145-.115.095-.286.135-.529.139-3.311 3.032-5.135 7.086-5.135 11.352 0 9.627 8.679 17.396 19.293 16.986 10.616-.396 19.147-8.975 18.844-19.377-.297-3.735-1.672-7.29-3.961-10.331.036-.878-.053-1.739-.267-2.547zm-10.542-.152c-1.107.372-2.158.504-3.056.492-.373-.307-.638-.764-.698-1.302-.059-.572.128-1.122.488-1.54.348-1.082.824-2.034 1.348-2.777 0-.067.036-.128.095-.159.53-.031 1.032.141 1.422.457.972.725 1.789 1.63 2.334 2.598.05.629-.19 1.218-.613 1.632-.336.341-.798.566-1.32.599zm0 0M1046.018 13.396c-.459-2.052-.892-3.993-1.273-5.848-1.561.163-3.087.385-4.563.651-1.722-3.701-5.89-6.117-10.501-5.421-5.67.469-10.169 5.526-9.963 11.58.253 4.183 2.61 7.832 6.031 9.902-.578.41-1.132.632-1.669.632-4.664 0-8.882-2.498-11.174-6.697-.012-.635-.055-1.325-.143-2.058-.176.158-.399.271-.681.354-3.431 3.192-5.322 7.441-5.322 11.912 0 9.981 8.932 18.051 19.868 17.712 10.938-.327 19.748-9.066 19.497-19.689-.245-3.776-1.586-7.379-3.86-10.469.119-.866.117-1.731-.008-2.561zm-11.064-.86c-1.027.307-1.997.368-2.81.282-.372-.323-.63-.793-.679-1.339-.049-.581.15-1.134.519-1.55.358-.962.847-1.792 1.385-2.406 0-.055.03-.105.079-.131.532-.026 1.033.15 1.423.467.888.671 1.618 1.526 2.069 2.445.04.64-.212 1.233-.646 1.646-.345.338-.814.558-1.34.586zm0 0M1096.517 13.714c-.372-2.101-.722-4.111-1.031-6.053-1.531.132-3.033.312-4.495.527-1.672-3.892-5.885-6.502-10.605-5.938-5.805.38-10.435 5.462-10.269 11.578.205 4.179 2.535 7.831 5.936 9.894-.677.374-1.341.574-1.995.574-4.866 0-9.27-2.537-11.693-6.799-.079-.619-.183-1.282-.323-1.98-.231.216-.5.395-.817.549-3.541 3.336-5.492 7.761-5.492 12.417 0 10.303 9.162 18.645 20.389 18.37 11.228-.265 20.291-9.149 20.088-19.97-.199-3.815-1.51-7.461-3.769-10.595.194-.856.271-1.724.226-2.574zm-11.536-1.5c-.955.249-1.851.245-2.587.091-.371-.337-.623-.819-.663-1.372-.039-.59.171-1.145.549-1.559.366-.854.866-1.571 1.417-2.069 0-.044.025-.085.064-.106.535-.021 1.035.158 1.425.476.813.622 1.463 1.431 1.828 2.306.033.649-.23 1.247-.675 1.659-.353.336-.828.551-1.358.574zm0 0M1146.964 13.998c-.294-2.144-.571-4.217-.815-6.235-1.504.104-2.985.246-4.434.416-1.628-4.064-5.88-6.847-10.698-6.401-5.926.3-10.674 5.405-10.542 11.575.162 4.177 2.468 7.831 5.851 9.888-.765.34-1.529.522-2.287.522-5.047 0-9.618-2.573-12.159-6.891-.138-.604-.296-1.243-.483-1.909-.281.266-.591.504-.939.723-3.639 3.465-5.644 8.048-5.644 12.87 0 10.59 9.368 19.175 20.856 18.957 11.487-.209 20.776-9.222 20.615-20.222-.156-3.848-1.441-7.534-3.687-10.707.261-.847.409-1.718.435-2.586zm-11.958-2.072c-.891.196-1.722.135-2.389-.079-.37-.35-.616-.843-.647-1.403-.032-.597.189-1.154.575-1.566.373-.757.884-1.375 1.446-1.768 0-.035.02-.067.051-.084.536-.017 1.036.166 1.425.485.746.576 1.325 1.345 1.614 2.181.026.658-.247 1.259-.701 1.671-.361.333-.841.545-1.374.563zm0 0M1197.358 14.25c-.225-2.183-.437-4.311-.624-6.398-1.48.08-2.942.189-4.38.319-1.589-4.215-5.876-7.151-10.781-6.81-6.032.23-10.884 5.355-10.783 11.573.124 4.175 2.409 7.83 5.776 9.882-.843.311-1.694.476-2.545.476-5.206 0-9.924-2.603-12.569-6.971-.19-.591-.396-1.209-.624-1.848-.324.312-.671.602-1.047.877-3.725 3.58-5.778 8.302-5.778 13.27 0 10.843 9.549 19.642 21.267 19.476 11.717-.16 21.205-9.287 21.082-20.445-.12-3.878-1.381-7.598-3.615-10.806.32-.838.53-1.712.62-2.595zm-12.331-2.579c-.833.151-1.606.039-2.213-.229-.369-.361-.61-.863-.634-1.429-.024-.603.205-1.163.598-1.573.38-.672.9-1.201 1.473-1.502 0-.027.015-.052.038-.065.538-.012 1.038.173 1.426.493.687.537 1.204 1.27 1.425 2.071.02.665-.262 1.27-.725 1.681-.367.332-.851.539-1.388.553zm0 0M1247.699 14.467c-.165-2.216-.321-4.392-.458-6.537-1.459.059-2.905.139-4.333.234-1.555-4.347-5.873-7.415-10.853-7.164-6.123.169-11.066 5.312-10.992 11.571.091 4.173 2.357 7.83 5.712 9.878-.911.285-1.838.435-2.769.435-5.344 0-10.19-2.63-12.924-7.041-.237-.579-.484-1.179-.747-1.794-.362.351-.741.686-1.141 1.01-3.799 3.679-5.893 8.521-5.893 13.616 0 11.063 9.706 20.048 21.623 19.926 11.915-.117 21.576-9.343 21.486-20.638-.088-3.904-1.328-7.653-3.552-10.891.37-.832.634-1.708.779-2.605zm-12.653-3.016c-.784.11-1.507-.045-2.061-.359-.369-.372-.605-.881-.623-1.452-.017-.61.22-1.171.618-1.58.386-.597.914-1.051 1.495-1.272 0-.019.011-.038.029-.047.539-.009 1.039.178 1.427.499.634.503 1.097 1.205 1.26 1.977.014.671-.275 1.278-.745 1.689-.372.33-.861.535-1.4.545zm0 0M1297.988 14.651c-.114-2.244-.223-4.46-.318-6.655-1.441.04-2.874.096-4.294.162-1.526-4.458-5.87-7.638-10.913-7.464-6.201.118-11.22 5.275-11.169 11.57.064 4.172 2.314 7.83 5.657 9.873-.968.264-1.959.402-2.957.402-5.462 0-10.415-2.652-13.226-7.1-.275-.57-.557-1.154-.851-1.748-.393.384-.799.757-1.219 1.122-3.863 3.763-5.992 8.707-5.992 13.909 0 11.249 9.839 20.392 21.925 20.307 12.083-.082 21.89-9.392 21.828-20.801-.061-3.927-1.284-7.701-3.499-10.965.413-.825.723-1.704.915-2.612zm-12.926-3.387c-.743.077-1.423-.116-1.932-.469-.368-.38-.601-.896-.614-1.472-.012-.614.232-1.176.636-1.584.391-.535.925-.923 1.514-1.077 0-.014.007-.026.019-.033.541-.006 1.04.183 1.428.504.591.475 1.008 1.151 1.121 1.897.01.676-.286 1.286-.761 1.697-.378.328-.87.53-1.411.537zm0 0M1348.225 14.802c-.074-2.267-.143-4.517-.204-6.753-1.427.027-2.848.062-4.262.105-1.502-4.55-5.867-7.821-10.962-7.71-6.265.076-11.346 5.245-11.313 11.569.04 4.17 2.278 7.829 5.612 9.87-1.015.246-2.059.373-3.113.373-5.557 0-10.599-2.67-13.472-7.148-.306-.562-.617-1.133-.935-1.711-.42.411-.847.816-1.284 1.215-3.915 3.831-6.072 8.859-6.072 14.148 0 11.401 9.947 20.673 22.171 20.618 12.221-.052 22.148-9.43 22.108-20.934-.039-3.944-1.248-7.74-3.456-11.024.449-.82.796-1.701 1.026-2.618zm-13.15-3.691c-.709.05-1.354-.173-1.827-.559-.368-.386-.598-.908-.605-1.487-.008-.618.241-1.182.649-1.589.395-.483.935-.819 1.529-.917 0-.009.005-.017.013-.021.542-.004 1.04.187 1.428.508.555.451.935 1.106 1.007 1.831.007.681-.295 1.293-.775 1.703-.381.327-.876.527-1.419.531zm0 0M1398.409 14.919c-.042-2.285-.081-4.56-.115-6.828-1.416.015-2.828.035-4.236.059-1.485-4.62-5.866-7.963-11.001-7.9-6.315.042-11.445 5.221-11.426 11.567.023 4.17 2.25 7.83 5.577 9.868-1.052.232-2.136.351-3.233.351-5.631 0-10.742-2.684-13.663-7.185-.331-.556-.664-1.117-1.002-1.682-.44.432-.884.861-1.334 1.286-3.955 3.885-6.135 8.977-6.135 14.335 0 11.52 10.033 20.891 22.364 20.86 12.327-.029 22.348-9.461 22.325-21.038-.022-3.958-1.219-7.77-3.422-11.07.476-.817.853-1.698 1.112-2.623zm-13.324-3.926c-.682.027-1.301-.219-1.745-.63-.367-.391-.595-.918-.599-1.499-.005-.621.248-1.186.66-1.592.398-.444.942-.738 1.541-.794 0-.005.003-.009.007-.011.543-.003 1.041.19 1.429.511.528.433.878 1.071.919 1.78.003.684-.302 1.298-.786 1.708-.384.326-.882.524-1.426.527zm0 0M1448.54 15.003c-.018-2.298-.036-4.592-.051-6.882-1.408.007-2.814.016-4.218.026-1.472-4.67-5.864-8.064-11.028-8.036-6.351.019-11.515 5.205-11.507 11.567.01 4.168 2.231 7.829 5.552 9.865-1.077.223-2.191.337-3.318.337-5.685 0-10.845-2.695-13.801-7.213-.348-.552-.697-1.106-1.048-1.662-.455.448-.912.894-1.371 1.338-3.983 3.923-6.179 9.062-6.179 14.468 0 11.604 10.093 21.047 22.501 21.034 12.403-.013 22.49-9.483 22.48-21.113-.01-3.968-1.199-7.791-3.398-11.103.496-.814.894-1.696 1.174-2.626zm-13.448-4.095c-.663.012-1.262-.251-1.686-.679-.367-.396-.593-.926-.595-1.509-.002-.623.254-1.188.667-1.594.401-.415.948-.681 1.551-.705 0-.002.001-.004.003-.005.543-.001 1.041.192 1.429.514.507.42.837 1.045.855 1.743.002.687-.307 1.301-.793 1.711-.387.326-.886.523-1.431.524zm0 0M1498.619 15.053c-.005-2.306-.009-4.61-.013-6.914-1.403.002-2.806.004-4.208.007-1.463-4.701-5.863-8.125-11.044-8.118-6.372.004-11.557 5.194-11.555 11.566.003 4.168 2.219 7.829 5.537 9.864-1.093.217-2.224.327-3.37.327-5.716 0-10.905-2.701-13.882-7.228-.359-.549-.718-1.099-1.077-1.649-.463.456-.927.912-1.392 1.368-4.001 3.946-6.206 9.112-6.206 14.548 0 11.655 10.129 21.141 22.583 21.137 12.449-.003 22.576-9.496 22.574-21.157-.003-3.974-1.187-7.804-3.384-11.122.508-.813.918-1.696 1.21-2.629zm-13.522-4.196c-.652.003-1.24-.271-1.652-.709-.367-.398-.592-.93-.592-1.514-.001-.625.257-1.19.672-1.596.402-.398.951-.645 1.556-.652v-.001c.544 0 1.042.194 1.429.516.496.412.814 1.03.818 1.721 0 .688-.31 1.303-.798 1.713-.388.326-.888.522-1.433.522zm0 0M1548.645 15.07V8.145h-4.204C1542.98 3.434 1538.578 0 1533.391 0c-6.379 0-11.571 5.191-11.571 11.566 0 4.168 2.215 7.829 5.532 9.864-1.098.215-2.235.324-3.387.324-5.727 0-10.926-2.703-13.91-7.234-.362-.548-.724-1.097-1.086-1.645-.466.46-.933.919-1.399 1.379-4.007 3.953-6.215 9.129-6.215 14.574 0 11.672 10.141 21.172 22.61 21.172 12.465 0 22.605-9.5 22.605-21.172 0-3.976-1.183-7.808-3.379-11.129.512-.812.926-1.695 1.223-2.629zm-13.547-4.23c-.648 0-1.232-.277-1.639-.719-.368-.399-.592-.931-.592-1.516 0-.625.258-1.191.674-1.596.402-.392.951-.634 1.557-.634.543 0 1.042.194 1.429.516.492.409.805 1.026.805 1.714 0 .689-.311 1.304-.8 1.714-.388.325-.888.521-1.434.521zm0 0" fill="#000000"/></svg>