<?xml version="1.0" encoding="UTF-8"?>
<svg xmlns="http://www.w3.org/2000/svg" xmlns:xlink="http://www.w3.org/1999/xlink" width="50px" height="50px" viewBox="0 0 50 50" version="1.1">
<g id="surface1">
<path style=" stroke:none;fill-rule:nonzero;fill:rgb(0%,0%,0%);fill-opacity:1;" d="M 48.644531 15.070312 L 48.644531 8.144531 L 44.441406 8.144531 C 42.980469 3.433594 38.578125 0 33.390625 0 C 27.011719 0 21.820312 5.191406 21.820312 11.566406 C 21.820312 15.734375 24.035156 19.394531 27.351562 21.429688 C 26.253906 21.644531 25.117188 21.753906 23.964844 21.753906 C 18.238281 21.753906 13.039062 19.050781 10.054688 14.519531 L 8.96875 12.875 L 7.570312 14.253906 C 3.5625 18.207031 1.355469 23.382812 1.355469 28.828125 C 1.355469 40.5 11.496094 50 23.964844 50 C 36.429688 50 46.570312 40.5 46.570312 28.828125 C 46.570312 24.851562 45.386719 21.019531 43.191406 17.699219 C 43.703125 16.886719 44.117188 16.003906 44.414062 15.070312 Z M 35.097656 10.839844 C 33.867188 10.839844 32.867188 9.839844 32.867188 8.605469 C 32.867188 7.375 33.867188 6.375 35.097656 6.375 C 36.332031 6.375 37.332031 7.375 37.332031 8.605469 C 37.332031 9.839844 36.332031 10.839844 35.097656 10.839844 Z M 35.097656 10.839844 "/>
</g>
</svg>
